/* XPM */
static char *result[] = {
/* columns rows colors chars-per-pixel */
"64 64 21 1 ",
"  c #000003",
". c #01010B",
"X c #0E4F18",
"o c #533658",
"O c #00C91E",
"+ c #7DA968",
"@ c #65FC79",
"# c #FFA000",
"$ c #FFC107",
"% c #FDEC00",
"& c #FFEC00",
"* c #FFEB3B",
"= c #87A75F",
"- c #E28C41",
"; c #62348A",
": c #5C6BC0",
"> c #8852B5",
", c #9B68C6",
"< c #9FA8DA",
"1 c white",
"2 c None",
/* pixels */
"2222222222222222222222222222222222222222222222222222222222222222",
"2222222222222222222222222222222222222222222222222222222222222222",
"2222222222222222222222222222222222222222222222222222222222222222",
"2222222222222222222222222222222222222222222222222222222222222222",
"2222222222222222222222222222222--2222222222222222222222222222222",
"22222222222222222222222222222--;;--22222222222222222222222222222",
"222222222222222222222222222----;,----222222222222222222222222222",
"22222222222222222222222222-----;,-----22222222222222222222222222",
"2222222222222222222222222------;,------2222222222222222222222222",
"222222222222222222222222---;;;;;,;;;;---222222222222222222222222",
"222222222222222222222222--;>>>>;,>>>>;--222222222222222222222222",
"22222222222222222222222---;>>>>;,>>>>;---22222222222222222222222",
"222222222222222@@O22222-->>>>>>;,>>>>>>--22222O@@222222222222222",
"2222222222222-2@@O2222--;>>>>>>;,>>>>>>;--2222O@@2-2222222222222",
"2222222222222--@@O222--->>>;;;;;,;;;;>>>---222O@@--2222222222222",
"2222222222222--@@O222--->>;;;;;;,;;;;;>>---222O@@--2222222222222",
"2222222222222--@@O2----;>;;>>>;OO,>>>;;>;----2O@@--2222222222222",
"2222222222222--@@O----;>;;>>>>;@@,>>>>;;>;----O@@--2222222222222",
"2222222222222--@@O---;;;>>>>>>;@@,>>>>>>;;;---O@@--2222222222222",
"2222222222222--@@O--;;>>>>>>>>;@@,>>>>>>>>;;--O@@--2222222222222",
"2222222222222--@@O-;>>>>>>>>>>;OO,>>>>>>>>>>;-O@@--2222222222222",
"2222222222222--@@X>>>>;>>>>>>>;;,,>>>>>>>;>>>>X@@--2222222222222",
"2222222222222--@X>>>>>;>>>>>>>;;,,>>>>>>>;>>>>>X@--2222222222222",
"2222222222222--X>>>>>>>>>*>>>>;;,,>>>>*>>>>>>>>>X--2222222222222",
"2222222222222-->>>;;;;>>$**>>>;;,,>>>**$>>>>>>>>>--2222222222222",
"2222222222222-->>;OOOO>>$%**$>>;,>>$**%$>>OOOO>>>--2222222222222",
"2222222222222-->;O@@@@>>>*&**>>;,>>**&*>>>@@@@O>>--2222222222222",
"2222222222222--- @@@@@>>>$***,,,;;;***$>>>@@@@@ ---2222222222222",
"2222222222222---@@@@@@;>>>$**      **$>>>;@@@@@@---2222222222222",
"2222222222222--@@@OOOO >>>>>$      $>>>>> OOOO@@@--2222222222222",
"2222222222222--@@O     >>>>>>>>;,>>>>>>>>     O@@--2222222222222",
"2222222222222--OO      ;>>>>>>>;,>>>>>>>;      OO--2222222222222",
"2222222222222--    OOO  ;;>>>::::::>>>;;  OOO    --2222222222222",
"222222222222---    O@@    >::<<<<<<::>    @@O    ---222222222222",
"222222222222---;  -O@1;;  ##<<<<<<<<##  ;;@@O-  ;---222222222222",
"222222222222--;   -O@@>>   ##<<@@<<##   >>@@O-   ;--222222222222",
"222222222222--; . -OOO>>::::#<<@@<<#::::>>OOO- . ;--222222222222",
"222222222222--;   ---o>><<<<<##@@##<<<<<>>o---   ;--222222222222",
"222222222222--;     --;><<<<< #OO# <<<<<>;--     ;--222222222222",
"222222222222---;>>  ---;+@@<<      <<@@+;---  >>;---222222222222",
"222222222222---;>>>   --=O@<<      <<@O=--   >>;;---222222222222",
"222222222222---;;>>>  --;;>>>>>>>>>>>>>>--  >>>;;---222222222222",
"222222222222---;;>>>>>--;>>>>>>>>>>>>>>;-->>>>>;;---222222222222",
"222222222222---;;;>>>>---;>>>;;;;;;>>>;--->>>>;;;---222222222222",
"2222222222222--;>>>>>;2---;>;@@@@@@;>;---2;>>>>>;--2222222222222",
"2222222222222---;;;;;222--;>;OOOOOO;>;--222;;;;;---2222222222222",
"2222222222222------22222->>;>>>>>>>>;>>-22222------2222222222222",
"22222222222222----222222>>>>;>>>>>>;>>>>222222----22222222222222",
"2222222222222222222222OO@@>>>->>>>->>>@@OO2222222222222222222222",
"2222222222222222222222O@@@>>>--;;-->>>@@@O2222222222222222222222",
"22222222222222222222OO@@@@@@O------O@@@@@@OO22222222222222222222",
"2222222222222222222OOOOOOOOOO------OOOOOOOOOO2222222222222222222",
"2222222222222222222>>>>>>>>>>-2222->>>>>>>>>>2222222222222222222",
"2222222222222222222>>>>>>>>>>222222>>>>>>>>>>2222222222222222222",
"2222222222222222222;; ;;;; ;;222222;; ;;;; ;;2222222222222222222",
"222222222222222222----------22222222----------222222222222222222",
"222222222222222222----------22222222----------222222222222222222",
"222222222222222222---------2222222222---------222222222222222222",
"222222222222222222222222222222222222222---2222222222222222222222",
"2222222222222222222222222222222222222222222222222222222222222222",
"2222222222222222222222222222222222222222222222222222222222222222",
"2222222222222222222222222222222222222222222222222222222222222222",
"2222222222222222222222222222222222222222222222222222222222222222",
"2222222222222222222222222222222222222222222222222222222222222222"
};
