/* XPM */
static char *a60bdcabe57a4087caef1c2f94cedd0f60zL2PLf16hVEDuA[] = {
/* columns rows colors chars-per-pixel */
"32 32 4 1 ",
"  c #18101C",
". c #222537",
"X c #2F4B6A",
"o c #637F9F",
/* pixels */
"XXXX..........           XXXXXXX",
"XXXX.........  oooooooXX  XXXXXX",
"XXXX........  oXXXXXX...X  XXXXX",
"XXXX.......  oXXXXXXX....X  XXXX",
"XXXX......  oXXXXXXXX.....X  XXX",
"XXXX.....  oXXXXXXXXX......X  XX",
"XXXXXXXX  oXXXXXXXXXX.......X  X",
"         oXXXXXXXXXXX........X  ",
"         XXXXXXXXXXXX.........  ",
"ooooooXX  XXXXXXXXXXX........  o",
"XXXX....X  XXXXXXXXXX.......  oX",
"XXXX.....X  XXXXXXXXX......  oXX",
"XXXX......X  XXXXXXXX.....  oXXX",
"XXXX.......X  XXXXXXX....  oXXXX",
"XXXX........X  XXXXXXXXX  oXXXXX",
"XXXX.........X           oXXXXXX",
"XXXX..........           XXXXXXX",
"XXXX.........  oooooooXX  XXXXXX",
"XXXX........  oXXXXXX...X  XXXXX",
"XXXX.......  oXXXXXXX....X  XXXX",
"XXXX......  oXXXXXXXX.....X  XXX",
"XXXX.....  oXXXXXXXXX......X  XX",
"XXXXXXXX  oXXXXXXXXXX.......X  X",
"         oXXXXXXXXXXX........X  ",
"         XXXXXXXXXXXX.........  ",
"ooooooXX  XXXXXXXXXXX........  o",
"XXXX....X  XXXXXXXXXX.......  oX",
"XXXX.....X  XXXXXXXXX......  oXX",
"XXXX......X  XXXXXXXX.....  oXXX",
"XXXX.......X  XXXXXXX....  oXXXX",
"XXXX........X  XXXXXXXXX  oXXXXX",
"XXXX.........X           oXXXXXX"
};
