/* XPM */
static char *_84dccb32aaa467ffdd8119dc444f517vgeHDAWEtNHmAlhf[] = {
/* columns rows colors chars-per-pixel */
"32 32 5 1 ",
"  c #151510",
". c #20201A",
"X c #323226",
"o c #464A3A",
"O c #6E6F4E",
/* pixels */
"....XXXXXXXXXX..................",
"XXXXXXXXXXXXXXXXXXXXXXXXXXXXXXXX",
"oooooooooooooooooooooooooooooooo",
"OOOOOOOOOOOOOOOOOOOOOOOOOOOOOOOO",
"OOOOOOOOOOOOOOOOOOOOOOOOOOOOOOOO",
"oooooooooooooooooooooooooooooooo",
"ooooooooooooooooooooXXXXXXXooooo",
"XXXXXXXXX......XXXXXXXXXXXXXXXXX",
"......................XXXXXX....",
"                                ",
"....                ............",
"oooooXX......Xoooooooooooooooooo",
"oooooooX..XXoooooooooooooooooooo",
"OOOOOOOOOOOOOOOOOOOOOOOOOOOOOOOO",
"OOOOOOOOOOOOOOOOOOOOOOOOOOOOOOOO",
"OOOOOOOOOOOOOOOOOOOOOOOOOOOOOOOO",
"oooooooooooooooooooooooooooooooo",
"XXXXXXXXXXXXXX....XXXXXXXXXXXXXX",
".....XXXXXX..........XXXXXXX....",
"                         .....  ",
"                                ",
"................................",
"XXXXXXXXXXXXXXXXXXXXXXXXXXXXXXXX",
"oooooooooooooooooooooooooooooooo",
"OOOOOOOOOOOOOOOOOOOOOOOOOOOOOOOO",
"OOOOOOOOOOOOOOOOOOOOOOOOOOOOOOOO",
"OOOOOOOOOOOOOOOooXXXXXoOOOOOOOOO",
"ooooooooooooooXXXXXXXXXXoooooooo",
"XXXXXXXXXXXXXXX.....XXXXXXXXXXXX",
"XXXXXXXXXXX............XXXXXXXXX",
".....             .........XXXX.",
"                                "
};
