/* XPM */
static char *e20a5121571c49f9e0201e4e0445b5885XcDxQ4nAAeds3Us[] = {
/* columns rows colors chars-per-pixel */
"32 32 6 1 ",
"  c #1D1616",
". c #3A2825",
"X c #2C293D",
"o c #3C3531",
"O c #313C3B",
"+ c #526862",
/* pixels */
" XX.OOOOOOOOO... XX.OOOOOOOOO...",
" XX.OOOOOOOOO... XX.OoOOOOOOO...",
" XXXOOOOOOOOO..X X..OoooOOOOO...",
" XXXOOOOOOOOO..X X..OooOOOOOO..X",
" XX.OOOOOOOOO..X X..OooOOOOOO..X",
" XX.OOOOOOOOO..X X..OooOOOOOO.XX",
" XX.OOOOOOOOO.XX X..OOoOOoOOO.XX",
" XX.OOOOOoOOO.XX XX.OoOOOooOOXXX",
" X..OOOOOoOOO.XX XX.OoOOOOooOXXX",
" X..OOOOOoOOO.XX XX.ooOOOOOoOXXX",
" X..OOOOooOOO.XX XX.ooOOOOOOOXXX",
" X..OOOOoOoOO.XX XXXoOOOOOOOO.XX",
" XX.OOOOOOooO.XX XXXoOOOOOOOO.XX",
" XX.OOOOOOooO.XX XXXoOOOOOOOO.XX",
" XX.OOOOOOOoO.XX XXXOOOOOOOOO..X",
" XX.OOOOOOOoO.XX X+.OOOOOOOOO.+.",
" XX.OOOOOOOoO.XX X .OOOoOOOOO. .",
" XX.OOoOOOOoO.XX X..OOoooOOOO...",
" XX.OooOOOOOO..X X..OOooOOOoO..X",
" XX.ooOOOOOOOX.X X..OOoOOOOoO..X",
" XX.ooOOOOOOOXX. X..OOoOOOOoO..X",
" XX.OOOOOOOOOXX. X..OOooOOOoO.XX",
" XX.OOOOOOOOOXX. X..OOOOOOooO.XX",
" XX.OOOOOOOOOXX. XX.OOOOOOooO.XX",
" XX.OOOOOoOOOXX. XX.OOOOOOooO.XX",
" XX.OOOOOoOOO.X. XX.OOOOOOooO..X",
" XX.OOOOOoOOO.X. XX.OOOOOOooO..X",
" XX.OOOOooOOO... XX.OOOOOOOoO..X",
" X..OOOOOooOO... XX.OOOOOOOoO..X",
" X+.OOOOOOoOO.+. XX.OOOOOOOoO...",
" X .OOOOOOoOO. . XX.OOOOOOOoO...",
" X..OOOOOOOOO... XX.OOOOOOOOO..."
};
