/* XPM */
static char *_84a75ae6a014fb7f69badbd7210f0a0VtFo46LR1WZlPoUB[] = {
/* columns rows colors chars-per-pixel */
"32 32 7 1 ",
"  c #18101C",
". c #273973",
"X c #306C99",
"o c #2CF1EF",
"O c #8F9DB0",
"+ c #BEC7D2",
"@ c #E6EBEC",
/* pixels */
"@@@@@@@@@@@@+X+@@@@@@@@@@@@@@@@@",
"+++++++++++++X++++++++++++++++++",
"OOOOOX.OOOOO+X.OOOOOOOOO+X.OOOOO",
"OOOOOX.OOOOO+X.oOXOOOOOO+X.OOOOO",
"OOOOOX.OOOOO+X.XOOOOOOOO+X.OOOOO",
"OOOOOX.OOOOO+X.OOOOOOOOO+X.OOOOO",
"XXXXXX.OOOOO+X.OOOOOOOOO+XXXXXXX",
".....X.OOOOO+X.OOOOOOOOO+.......",
"OOOO+X.OOOOO+X.OOOOOOOOOOOOOOOOO",
"OOOO+X.OOOOO+X.OOOOOOOOOOOOOOOOO",
"OOOO+XXXXXXX+X.OOOOOOOOOOOOOOOOO",
"OOOO+X......+X.OOOOOOOOOOOOOOOOO",
"+OOO+X.OOOOO+X.OO+@@@@@@@@@@@@@@",
"XOOO+X.OOOOO+X.O+XXXXXXXXXXXXXXX",
"XOOO+X.OOOOO+X.+X               ",
"XOOO+X.OOOOO+X+X                ",
"X+@@@@@@@@@++XX   XXXXXXXXXXXXXX",
"XXXXXXXXXXXXXX   XX....X......+X",
"                X+X.OO+X.OOOOO+X",
"               X.+X.OO+X.OOOOO+X",
"XXXXXXXXXXXXXXX.O+X.OO+X.OOOOO+X",
"......X........OO+X.OO+X.OOOOO+.",
"OOOOO+X.OOOOOOOOO+XXXXXXXXOOOOOO",
"OOOOO+X.OOOOOOOOO+X.......XOOOOO",
"OOOOO+X.OOOOOOOOO+X.OOOOOO.XOOOO",
"OOOOO+X.OOOOOOOOO+X.OOOOOOO.XOOO",
"XXXXXXXXXXXXXXXXX+X.OOOOOOOO.XXX",
"..X..............+X.OOOOOOOOO...",
"O+X.OOOOOOoOoOoOO+X.OOOOOOOOOOOO",
"O+X.OOOOOOOOOOOOO+X.OOOOOOOOOOOO",
"O+X.OOOOOOOOOOOOO+X.OOOOOOOOOOOO",
"XXXXXXXXXXXXXXXXXXXXXXXXXXXXXXXX"
};
